solid OpenSCAD_Model
  facet normal -1 0 0
    outer loop
      vertex 0 35 7.77156e-15
      vertex 0 35 -4
      vertex 0 0 0
    endloop
  endfacet
  facet normal -1 0 0
    outer loop
      vertex 0 0 0
      vertex 0 35 -4
      vertex 0 8.88178e-16 -4
    endloop
  endfacet
  facet normal 0 1 2.22045e-16
    outer loop
      vertex 67 35 7.77156e-15
      vertex 67 35 -4
      vertex 0 35 7.77156e-15
    endloop
  endfacet
  facet normal 0 1 2.22045e-16
    outer loop
      vertex 0 35 7.77156e-15
      vertex 67 35 -4
      vertex 0 35 -4
    endloop
  endfacet
  facet normal 0 -2.22045e-16 1
    outer loop
      vertex 0 0 0
      vertex 67 0 0
      vertex 67 35 7.77156e-15
    endloop
  endfacet
  facet normal 0 -2.22045e-16 1
    outer loop
      vertex 0 35 7.77156e-15
      vertex 0 0 0
      vertex 67 35 7.77156e-15
    endloop
  endfacet
  facet normal 0 -1 -2.22045e-16
    outer loop
      vertex 0 0 0
      vertex 0 8.88178e-16 -4
      vertex 67 8.88178e-16 -4
    endloop
  endfacet
  facet normal 0 -1 -2.22045e-16
    outer loop
      vertex 67 0 0
      vertex 0 0 0
      vertex 67 8.88178e-16 -4
    endloop
  endfacet
  facet normal 0 2.22045e-16 -1
    outer loop
      vertex 0 35 -4
      vertex 67 35 -4
      vertex 0 8.88178e-16 -4
    endloop
  endfacet
  facet normal 0 2.22045e-16 -1
    outer loop
      vertex 0 8.88178e-16 -4
      vertex 67 35 -4
      vertex 67 8.88178e-16 -4
    endloop
  endfacet
  facet normal 1 0 0
    outer loop
      vertex 67 0 0
      vertex 67 8.88178e-16 -4
      vertex 67 35 -4
    endloop
  endfacet
  facet normal 1 0 0
    outer loop
      vertex 67 35 7.77156e-15
      vertex 67 0 0
      vertex 67 35 -4
    endloop
  endfacet
endsolid OpenSCAD_Model
